<?xml version="1.0" encoding="UTF-8"?>
<svg version="1.1" xmlns="http://www.w3.org/2000/svg" width="688" height="547">
<path d="M0 0 C227.04 0 454.08 0 688 0 C688 180.51 688 361.02 688 547 C460.96 547 233.92 547 0 547 C0 366.49 0 185.98 0 0 Z " fill="#0F0C38" transform="translate(0,0)"/>
<path d="M0 0 C0.0154612 1.23694862 0.0154612 1.23694862 0.03123474 2.49888611 C0.1290388 10.25405684 0.23152834 18.00914453 0.33933926 25.76418209 C0.39460473 29.75153216 0.44803037 33.73888952 0.49731445 37.72631836 C0.54490476 41.57131601 0.59724536 45.41622182 0.65294075 49.26111031 C0.67338857 50.73116342 0.69209756 52.20124174 0.70907402 53.67133904 C0.73306464 55.72361276 0.7631259 57.77571147 0.79467773 59.82788086 C0.81022202 60.99814316 0.8257663 62.16840546 0.84178162 63.37413025 C0.70415326 65.9252526 0.70415326 65.9252526 2 67 C4.88252645 67.16023562 7.74378527 67.25954029 10.62890625 67.31640625 C11.92525246 67.3475779 11.92525246 67.3475779 13.24778748 67.37937927 C16.01927445 67.44497114 18.79085921 67.50380418 21.5625 67.5625 C23.43685923 67.60567608 25.31120843 67.64929006 27.18554688 67.69335938 C31.79026336 67.80066227 36.39507858 67.90190215 41 68 C41 71.63 41 75.26 41 79 C35.12849572 79.12389553 29.25775757 79.21447924 23.38525391 79.2746582 C21.38902527 79.29975272 19.39288807 79.33383626 17.39697266 79.37719727 C14.52223112 79.43807246 11.64870752 79.46626024 8.7734375 79.48828125 C7.88570648 79.51408768 6.99797546 79.5398941 6.08334351 79.56648254 C1.93731392 79.56834563 -1.06375488 79.42375129 -4.42333984 76.84448242 C-10.49371523 70.1431423 -10.41218277 64.50769994 -10.29296875 55.8203125 C-10.28872391 54.6524118 -10.28447906 53.48451111 -10.28010559 52.28121948 C-10.263354 48.56224214 -10.22570698 44.84381273 -10.1875 41.125 C-10.17244867 38.59896618 -10.15876105 36.07292383 -10.14648438 33.546875 C-10.11346192 27.36439735 -10.06329691 21.18223783 -10 15 C-11.98 15 -13.96 15 -16 15 C-15.90781731 22.63572296 -15.80052302 30.27112532 -15.68261719 37.90649414 C-15.64428568 40.50507767 -15.60944026 43.10371502 -15.578125 45.70239258 C-15.53256534 49.43330143 -15.47455538 53.1638384 -15.4140625 56.89453125 C-15.39673569 58.64308159 -15.39673569 58.64308159 -15.37905884 60.42695618 C-15.3492543 62.0482972 -15.3492543 62.0482972 -15.31884766 63.70239258 C-15.29886215 65.13135612 -15.29886215 65.13135612 -15.2784729 66.58918762 C-15.15540728 69.26041348 -15.15540728 69.26041348 -13 72 C-13 73.32 -13 74.64 -13 76 C-12.01 76.33 -11.02 76.66 -10 77 C-9.566875 77.66 -9.13375 78.32 -8.6875 79 C-6.30634652 81.82210783 -4.66254825 81.5875233 -1 82 C2.25692099 82.18152289 5.51227379 82.25501133 8.7734375 82.31640625 C10.1590538 82.3475779 10.1590538 82.3475779 11.57266235 82.37937927 C14.50670344 82.44446119 17.44082962 82.50356643 20.375 82.5625 C22.37110235 82.6057246 24.36719627 82.64934012 26.36328125 82.69335938 C31.24210156 82.8000999 36.12100699 82.90148248 41 83 C41 86.63 41 90.26 41 94 C35.16504217 94.02483449 29.33011554 94.04292349 23.49511719 94.05493164 C21.51268986 94.05994103 19.53026618 94.0667504 17.54785156 94.07543945 C14.68814182 94.08765429 11.8284812 94.09326239 8.96875 94.09765625 C8.09134155 94.10281754 7.21393311 94.10797882 6.30993652 94.11329651 C1.11993667 94.11376303 -3.88382707 93.92060607 -9 93 C-9.33 92.34 -9.66 91.68 -10 91 C-10.721875 90.773125 -11.44375 90.54625 -12.1875 90.3125 C-18.55418692 87.34137944 -21.60779263 81.36207911 -24.23828125 75.11328125 C-25.63509847 71.23800885 -26.12354637 67.90110582 -26.11352539 63.77246094 C-26.11344986 62.73168396 -26.11337433 61.69090698 -26.11329651 60.61859131 C-26.10813522 59.50179993 -26.10297394 58.38500854 -26.09765625 57.234375 C-26.09553383 55.51157318 -26.09553383 55.51157318 -26.09336853 53.75396729 C-26.08777143 50.08595169 -26.07521944 46.41799715 -26.0625 42.75 C-26.05748463 40.26302171 -26.05292178 37.77604247 -26.04882812 35.2890625 C-26.03780295 29.1926875 -26.02106769 23.09634811 -26 17 C-28.97 17.495 -28.97 17.495 -32 18 C-31.93265175 25.080411 -31.84271086 32.16028487 -31.73754883 39.24023438 C-31.70443036 41.64544272 -31.67635833 44.05072634 -31.65356445 46.45605469 C-31.61977759 49.92675659 -31.56744905 53.39677673 -31.51171875 56.8671875 C-31.50213387 58.46311234 -31.50213387 58.46311234 -31.49235535 60.09127808 C-31.29284676 70.37508027 -29.01755501 78.62617344 -23 87 C-22.29875 88.03125 -21.5975 89.0625 -20.875 90.125 C-14.51649387 97.09296652 -7.76474525 99.28260086 1.41918945 99.72238159 C6.84297436 99.863873 12.26216791 99.88290807 17.6875 99.875 C19.94989293 99.8931471 22.21226617 99.91395607 24.47460938 99.9375 C29.98332411 99.98907794 35.49105722 100.00444962 41 100 C41 103.63 41 107.26 41 111 C35.38070937 111.04991171 29.76155141 111.08595882 24.14208984 111.10986328 C22.23549142 111.1198421 20.32890798 111.13342996 18.42236328 111.15087891 C-8.4170642 111.39013967 -8.4170642 111.39013967 -17 106 C-18.093125 105.5875 -19.18625 105.175 -20.3125 104.75 C-23.48091962 103.4595954 -25.69165773 101.67423947 -28.23046875 99.390625 C-29.29430786 98.43978027 -29.29430786 98.43978027 -30.37963867 97.46972656 C-30.91435791 96.9847168 -31.44907715 96.49970703 -32 96 C-31.99111755 97.06187027 -31.98223511 98.12374054 -31.9730835 99.2177887 C-31.89190794 109.23724247 -31.8319915 119.25662931 -31.79275131 129.27633762 C-31.7718991 134.4272847 -31.74362453 139.57796577 -31.69824219 144.72875977 C-31.65470026 149.70193526 -31.63084509 154.67485528 -31.62049103 159.64820671 C-31.61311465 161.54319211 -31.59871023 163.43816393 -31.57707977 165.33304024 C-31.54793469 167.99259503 -31.54404861 170.65110157 -31.54589844 173.31079102 C-31.53151733 174.0897876 -31.51713623 174.86878418 -31.50231934 175.67138672 C-31.54394499 181.22212261 -32.84923962 184.41291123 -36 189 C-40.30769231 193 -40.30769231 193 -43 193 C-43 193.66 -43 194.32 -43 195 C-50.19716524 197.16613711 -59.35899612 197.19222688 -66.28515625 194.1171875 C-70.73692495 191.21694638 -73.9261433 186.84528338 -76 182 C-76.66247432 175.48566915 -75.46614006 170.58848429 -72 165 C-68.92493427 161.5289669 -65.39814528 159.41368955 -61 158 C-57.66796875 157.8046875 -57.66796875 157.8046875 -54.1875 157.875 C-53.02605469 157.89304687 -51.86460937 157.91109375 -50.66796875 157.9296875 C-49.78753906 157.95289063 -48.90710938 157.97609375 -48 158 C-48 158.66 -48 159.32 -48 160 C-46.02 160 -44.04 160 -42 160 C-42 113.8 -42 67.6 -42 20 C-55.365 22.475 -55.365 22.475 -69 25 C-78 26 -78 26 -87 26 C-86.505 45.8 -86.505 45.8 -86 66 C-66.695 66.495 -66.695 66.495 -47 67 C-47 70.96 -47 74.92 -47 79 C-52.72911572 79.09913284 -58.45772839 79.1715934 -64.1875 79.21972656 C-66.13517966 79.23979906 -68.08279937 79.26706332 -70.03027344 79.30175781 C-72.83543721 79.35046852 -75.63980187 79.37301241 -78.4453125 79.390625 C-79.31116974 79.41127014 -80.17702698 79.43191528 -81.06912231 79.45318604 C-86.52563895 79.45519548 -89.8015185 78.81904944 -94 75 C-98.03251061 69.55477041 -98.55881506 65.44060091 -98.390625 58.78515625 C-98.38496521 57.92941513 -98.37930542 57.07367401 -98.37347412 56.19200134 C-98.35123507 53.48157789 -98.30106425 50.77251809 -98.25 48.0625 C-98.22991878 46.215514 -98.21167086 44.3685071 -98.1953125 42.52148438 C-98.15141147 38.0138043 -98.08247269 33.50713267 -98 29 C-99.65 29 -101.3 29 -103 29 C-102.98045691 34.51421834 -102.92836853 40.026868 -102.84741211 45.54052734 C-102.82435896 47.41218497 -102.80986646 49.28396998 -102.80444336 51.15576172 C-103.15307917 65.95383345 -103.15307917 65.95383345 -97 79 C-91.43765782 82.70822812 -84.93194491 82.19120339 -78.4453125 82.31640625 C-77.54376434 82.33718735 -76.64221619 82.35796844 -75.71334839 82.37937927 C-72.8506386 82.4444458 -69.98784181 82.50355914 -67.125 82.5625 C-65.17707456 82.60572607 -63.22915771 82.64934164 -61.28125 82.69335938 C-56.52092111 82.80008289 -51.76050524 82.90146964 -47 83 C-47 86.63 -47 90.26 -47 94 C-53.26218093 94.07445886 -59.52410102 94.12874818 -65.78662109 94.16479492 C-67.91459648 94.17983076 -70.04254114 94.20026483 -72.17041016 94.22631836 C-75.23868417 94.26293089 -78.30654649 94.27977881 -81.375 94.29296875 C-82.31802979 94.30845261 -83.26105957 94.32393646 -84.23266602 94.33988953 C-91.26777772 94.34166011 -96.55309534 93.13379812 -102.625 89.375 C-108.62873383 83.37126617 -114.03874799 75.31195606 -114.34057617 66.62524414 C-114.34010763 65.01180354 -114.32354326 63.39830721 -114.29296875 61.78515625 C-114.28872391 60.92941513 -114.28447906 60.07367401 -114.28010559 59.19200134 C-114.26342789 56.4818358 -114.22579705 53.77243752 -114.1875 51.0625 C-114.17243902 49.2155056 -114.1587531 47.36849944 -114.14648438 45.52148438 C-114.11356026 41.01403116 -114.06185469 36.50714528 -114 32 C-116.475 32.495 -116.475 32.495 -119 33 C-119 47.19 -119 61.38 -119 76 C-118.34 76 -117.68 76 -117 76 C-116.731875 76.6290625 -116.46375 77.258125 -116.1875 77.90625 C-112.66848794 85.59251319 -108.13729304 92.46550635 -100.125 95.9375 C-99.09375 96.288125 -98.0625 96.63875 -97 97 C-96.34 97.33 -95.68 97.66 -95 98 C-88.84178441 99.02982656 -82.60048392 99.19074699 -76.37109375 99.31640625 C-75.49598648 99.33718735 -74.62087921 99.35796844 -73.71925354 99.37937927 C-70.95873898 99.44409776 -68.19813983 99.50339341 -65.4375 99.5625 C-63.55142399 99.60575937 -61.66535614 99.64937585 -59.77929688 99.69335938 C-55.18628178 99.7996979 -50.59318271 99.90117746 -46 100 C-46 103.63 -46 107.26 -46 111 C-52.24388488 111.04969116 -58.48765288 111.08585699 -64.73168945 111.10986328 C-66.85280362 111.11987844 -68.97390413 111.13349446 -71.0949707 111.15087891 C-74.15579616 111.17532525 -77.21643797 111.18652825 -80.27734375 111.1953125 C-81.6841465 111.21079636 -81.6841465 111.21079636 -83.11936951 111.22659302 C-96.96120548 111.22891567 -105.87055627 107.41035622 -115.8984375 97.92578125 C-117.84984004 95.9606803 -117.84984004 95.9606803 -120 95 C-119.98334541 96.345177 -119.98334541 96.345177 -119.96635437 97.7175293 C-119.86594211 106.19145248 -119.78992852 114.66517428 -119.74093914 123.13955688 C-119.71490579 127.49580376 -119.67962365 131.85155681 -119.62280273 136.20751953 C-119.56825744 140.41562719 -119.53853241 144.62326151 -119.52561378 148.83169556 C-119.51641405 150.43282517 -119.49844898 152.03393047 -119.47134972 153.63485718 C-119.22623794 168.72271965 -119.22623794 168.72271965 -123.53279114 174.64355469 C-125 176 -125 176 -127.10746765 177.00488281 C-129.35379608 177.90720556 -129.35379608 177.90720556 -130 181 C-135.98460155 184.07317377 -143.91455029 184.07583509 -150.34375 182.3828125 C-155.8476037 179.99075301 -158.81426445 175.94093379 -162 171 C-162.66 170.01 -163.32 169.02 -164 168 C-164.7239572 162.31480666 -164.36678948 157.13699894 -160.84765625 152.47265625 C-156.44811696 147.48813666 -151.27841175 145.39291536 -144.703125 144.7890625 C-139.67808154 144.70242382 -135.04894971 145.36888129 -130 146 C-130 104.75 -130 63.5 -130 21 C-90.57151401 14.04203188 -90.57151401 14.04203188 -77.4375 11.875 C-75.92756028 11.62449862 -74.4176322 11.3739271 -72.90771484 11.12329102 C-63.34734709 9.53915363 -53.78180634 7.98889743 -44.2097168 6.47705078 C-38.45957879 5.56578754 -32.7162226 4.61953249 -26.9765625 3.64453125 C-25.95014145 3.47080238 -25.95014145 3.47080238 -24.90298462 3.29356384 C-21.54528651 2.72522478 -18.18838697 2.15308448 -14.83251953 1.57397461 C-13.02050049 1.26665405 -13.02050049 1.26665405 -11.171875 0.953125 C-9.5645752 0.67710449 -9.5645752 0.67710449 -7.92480469 0.39550781 C-5.23184462 0.03135128 -2.71104754 -0.0289207 0 0 Z " fill="#0DBFA1" transform="translate(406,119)"/>
<path d="M0 0 C3.38902346 1.81554828 5.66463634 3.52912905 6.859375 7.24609375 C7.519375 7.24609375 8.179375 7.24609375 8.859375 7.24609375 C11.82008069 12.40956447 11.69750973 17.79178131 10.3125 23.5 C8.15821207 28.85523462 4.72036735 31.1404978 -0.484375 33.3984375 C-5.91041052 35.12998119 -10.69942651 35.24639022 -15.890625 32.74609375 C-19.88275744 30.07536645 -22.46662834 26.74495978 -24.140625 22.24609375 C-24.90859349 16.53432812 -24.7507047 11.45766737 -22.140625 6.24609375 C-20.51953125 4.48046875 -20.51953125 4.48046875 -18.703125 2.99609375 C-18.10628906 2.4959375 -17.50945312 1.99578125 -16.89453125 1.48046875 C-12.21345062 -1.81401116 -5.28828397 -1.86247958 0 0 Z " fill="#0DBA9E" transform="translate(208.140625,344.75390625)"/>
<path d="M0 0 C21.70363718 -0.75886843 21.70363718 -0.75886843 28 5 C31.67279089 8.67279089 32.34521187 11.83575807 32.6875 16.875 C32.50455162 22.53936317 30.94945103 25.39761497 27.01953125 29.37890625 C26.35308594 29.91386719 25.68664062 30.44882812 25 31 C24.3090625 31.56203125 23.618125 32.1240625 22.90625 32.703125 C18.53745399 34.6526415 14.40629828 34.3165579 9.6875 34.1875 C4.8921875 34.0946875 4.8921875 34.0946875 0 34 C0 22.78 0 11.56 0 0 Z " fill="#0DBB9F" transform="translate(318,344)"/>
<path d="M0 0 C9 0 9 0 11.84765625 2.84375 C12.61819517 4.04236609 13.35623213 5.26242315 14.0625 6.5 C14.64547852 7.43005859 14.64547852 7.43005859 15.24023438 8.37890625 C16.18902602 9.90165827 17.09863023 11.4487064 18 13 C18.33 8.71 18.66 4.42 19 0 C21.97 0 24.94 0 28 0 C28 11.22 28 22.44 28 34 C21 34 21 34 18.92578125 32.05859375 C18.39339844 31.19363281 17.86101562 30.32867187 17.3125 29.4375 C16.77238281 28.59058594 16.23226563 27.74367188 15.67578125 26.87109375 C13.7625025 23.59309869 11.88309971 20.2954245 10 17 C9.67 22.61 9.34 28.22 9 34 C6.03 34 3.06 34 0 34 C0 22.78 0 11.56 0 0 Z " fill="#0DB79D" transform="translate(274,344)"/>
<path d="M0 0 C17.88888889 0 17.88888889 0 24.3125 4.6875 C26.76309768 8.04572645 26.56240477 10.9721894 26 15 C24.99124788 17.81009519 24.66604583 18.66697708 22 20 C21.66501699 22.33165034 21.66501699 22.33165034 22 25 C23.31200404 26.35432675 24.64631404 27.68733482 26 29 C26.75 31.75 26.75 31.75 27 34 C23.7 34 20.4 34 17 34 C16.68546875 33.28972656 16.3709375 32.57945312 16.046875 31.84765625 C15.40492188 30.46900391 15.40492188 30.46900391 14.75 29.0625 C14.33234375 28.14597656 13.9146875 27.22945313 13.484375 26.28515625 C12.06626271 23.53387148 12.06626271 23.53387148 8 23 C8 26.63 8 30.26 8 34 C5.36 34 2.72 34 0 34 C0 22.78 0 11.56 0 0 Z " fill="#0DB99E" transform="translate(442,344)"/>
<path d="M0 0 C1.2065625 0.0309375 1.2065625 0.0309375 2.4375 0.0625 C2.43637207 1.18108398 2.43524414 2.29966797 2.43408203 3.45214844 C2.43779143 7.65723655 2.48093102 11.86120328 2.53515625 16.06591797 C2.55317079 17.8754141 2.56091153 19.6850461 2.55761719 21.49462891 C2.5422791 35.36792996 4.20162328 45.10683934 13.4375 56.0625 C18.28436433 59.67639007 23.06220702 61.15062626 29.02246094 61.26782227 C30.37340851 61.2977401 30.37340851 61.2977401 31.75164795 61.32826233 C33.19716034 61.35333107 33.19716034 61.35333107 34.671875 61.37890625 C36.16161835 61.4100779 36.16161835 61.4100779 37.68145752 61.44187927 C40.85006882 61.50719749 44.01876211 61.56617739 47.1875 61.625 C49.33724802 61.66820207 51.48698778 61.71181691 53.63671875 61.75585938 C58.90355949 61.86286071 64.17048155 61.96465991 69.4375 62.0625 C69.4375 64.0425 69.4375 66.0225 69.4375 68.0625 C64.04809905 68.08738181 58.6587322 68.10544551 53.26928711 68.11743164 C51.43920305 68.12243319 49.60912293 68.12923656 47.77905273 68.13793945 C45.13524396 68.15018932 42.49148842 68.15577023 39.84765625 68.16015625 C39.04103043 68.16531754 38.2344046 68.17047882 37.40333557 68.17579651 C22.36274391 68.17725272 22.36274391 68.17725272 16.4375 64.0625 C15.66148437 63.7840625 14.88546875 63.505625 14.0859375 63.21875 C8.55382065 60.80354854 3.79647491 55.89121267 1.19140625 50.46875 C0.48765761 48.340668 -0.11117579 46.25686944 -0.5625 44.0625 C-1.2225 44.0625 -1.8825 44.0625 -2.5625 44.0625 C-3.89499419 40.06501743 -3.70516329 36.22196284 -3.6953125 32.0546875 C-3.69674759 30.73284958 -3.69674759 30.73284958 -3.69821167 29.38430786 C-3.69889186 27.52329436 -3.6970488 25.66227847 -3.69287109 23.80126953 C-3.68750784 20.94167811 -3.69282806 18.08224286 -3.69921875 15.22265625 C-3.69855819 13.41666632 -3.69727749 11.61067648 -3.6953125 9.8046875 C-3.69733673 8.94430878 -3.69936096 8.08393005 -3.70144653 7.19747925 C-3.67312392 0.08958839 -3.67312392 0.08958839 0 0 Z " fill="#0E2145" transform="translate(289.5625,150.9375)"/>
<path d="M0 0 C2.97 0 5.94 0 9 0 C9.02505615 0.7520874 9.0501123 1.5041748 9.07592773 2.27905273 C9.19150514 5.66539196 9.31440345 9.05142613 9.4375 12.4375 C9.47681641 13.62150391 9.51613281 14.80550781 9.55664062 16.02539062 C9.61948242 17.71245117 9.61948242 17.71245117 9.68359375 19.43359375 C9.72025146 20.47572021 9.75690918 21.51784668 9.79467773 22.59155273 C9.73515341 24.9499826 9.73515341 24.9499826 11 26 C14.465 25.505 14.465 25.505 18 25 C18.33 16.75 18.66 8.5 19 0 C21.97 0 24.94 0 28 0 C28.11662261 4.04142215 28.1873935 8.08240865 28.25 12.125 C28.30027344 13.83816406 28.30027344 13.83816406 28.3515625 15.5859375 C28.42676452 22.05331084 28.41108105 26.10891389 24 31 C23.484375 31.598125 22.96875 32.19625 22.4375 32.8125 C19.72041059 35.05705212 16.93613443 35.15905452 13.5625 35.1875 C12.41974609 35.20876953 12.41974609 35.20876953 11.25390625 35.23046875 C7.26225789 34.8223106 5.3540763 33.29278412 2.26953125 30.7421875 C-1.667911 25.78079914 -0.51492188 19.1042309 -0.3125 13.125 C-0.28994141 11.86429687 -0.26738281 10.60359375 -0.24414062 9.3046875 C-0.18537581 6.20190501 -0.10325851 3.10156801 0 0 Z " fill="#0DB59C" transform="translate(232,344)"/>
<path d="M0 0 C0.00586624 0.62925385 0.01173248 1.25850769 0.01777649 1.90682983 C0.08202763 8.4940004 0.16652714 15.08069665 0.26245117 21.66748047 C0.29557451 24.12119264 0.32364506 26.5749787 0.34643555 29.02880859 C0.38021329 32.56900328 0.43254167 36.10852849 0.48828125 39.6484375 C0.49467117 40.73426117 0.5010611 41.82008484 0.50764465 42.93881226 C0.71910902 54.05276851 2.98045707 62.98045707 11 71 C13.01250507 72.37975238 14.69256824 73.15581765 17 74 C17 74.66 17 75.32 17 76 C41.75 76.495 41.75 76.495 67 77 C67 77.33 67 77.66 67 78 C52.48 78 37.96 78 23 78 C23 78.99 23 79.98 23 81 C44.78 81.495 44.78 81.495 67 82 C67 82.33 67 82.66 67 83 C60.36578255 83.15321358 53.73202778 83.25765671 47.09643555 83.32958984 C44.84333243 83.35960325 42.59034458 83.40042784 40.33764648 83.45263672 C15.6014475 84.01121372 15.6014475 84.01121372 5.66699219 74.84814453 C-1.0817765 68.1203548 -5.66546407 59.05887357 -6.12025452 49.46257019 C-6.11803391 48.56766373 -6.11581329 47.67275726 -6.11352539 46.75073242 C-6.11341209 45.21971138 -6.11341209 45.21971138 -6.11329651 43.65776062 C-6.10813522 42.5680043 -6.10297394 41.47824799 -6.09765625 40.35546875 C-6.0962413 39.2305452 -6.09482635 38.10562164 -6.09336853 36.9466095 C-6.08777931 33.36021241 -6.07522872 29.77387816 -6.0625 26.1875 C-6.05748361 23.75325611 -6.05292094 21.31901124 -6.04882812 18.88476562 C-6.0378134 12.92315571 -6.02108594 6.96158234 -6 1 C-4 0 -4 0 0 0 Z " fill="#0E2748" transform="translate(380,136)"/>
<path d="M0 0 C7.26 0 14.52 0 22 0 C22 2.64 22 5.28 22 8 C17.71 8 13.42 8 9 8 C9 9.65 9 11.3 9 13 C12.96 13 16.92 13 21 13 C21 15.64 21 18.28 21 21 C17.04 21 13.08 21 9 21 C9 22.65 9 24.3 9 26 C13.29 26 17.58 26 22 26 C22 28.64 22 31.28 22 34 C14.74 34 7.48 34 0 34 C0 22.78 0 11.56 0 0 Z " fill="#0DB69D" transform="translate(520,344)"/>
<path d="M0 0 C6.93 0 13.86 0 21 0 C21 2.64 21 5.28 21 8 C16.71 8 12.42 8 8 8 C8 9.65 8 11.3 8 13 C12.29 13 16.58 13 21 13 C21 15.64 21 18.28 21 21 C16.71 21 12.42 21 8 21 C8 22.65 8 24.3 8 26 C12.62 26 17.24 26 22 26 C22 28.64 22 31.28 22 34 C14.74 34 7.48 34 0 34 C0 22.78 0 11.56 0 0 Z " fill="#0DB99E" transform="translate(406,344)"/>
<path d="M0 0 C4.54981413 0.75337831 7.38160628 3.05541024 10.40625 6.3984375 C9.40625 9.3984375 9.40625 9.3984375 6.40625 11.3984375 C4.03125 11.0859375 4.03125 11.0859375 1.40625 10.3984375 C0.0140625 10.12 0.0140625 10.12 -1.40625 9.8359375 C-2.128125 9.6915625 -2.85 9.5471875 -3.59375 9.3984375 C-2.89541767 12.62271553 -2.89541767 12.62271553 0.05859375 13.86328125 C2.24555777 14.84364443 4.43305689 15.82281483 6.62109375 16.80078125 C9.56755405 18.49096675 10.40361271 19.2214061 11.40625 22.3984375 C12.18519737 29.40896382 12.18519737 29.40896382 9.09375 33.3359375 C4.48106649 36.87590391 0.02011738 36.96180095 -5.59375 36.3984375 C-8.46875 35.0859375 -8.46875 35.0859375 -10.59375 33.3984375 C-11.191875 32.9240625 -11.79 32.4496875 -12.40625 31.9609375 C-13.59375 30.3984375 -13.59375 30.3984375 -13.59375 26.3984375 C-11.38487053 25.05733211 -10.13905581 24.33233983 -7.53125 24.6484375 C-5.59375 25.3984375 -5.59375 25.3984375 -2.59375 27.3984375 C0.53146833 27.56542982 0.53146833 27.56542982 3.40625 27.3984375 C3.40625 26.0784375 3.40625 24.7584375 3.40625 23.3984375 C2.54 23.2953125 1.67375 23.1921875 0.78125 23.0859375 C-3.97959502 22.11613574 -7.5779219 20.07565623 -11.59375 17.3984375 C-12.52401323 12.26941862 -12.02879478 7.5651485 -10.21875 2.7109375 C-6.7598097 -0.33622419 -4.49319097 -0.27752062 0 0 Z " fill="#0DB79D" transform="translate(495.59375,342.6015625)"/>
<path d="M0 0 C1.8125 1.6875 1.8125 1.6875 3 3 C2 6 2 6 -1 8 C-3.375 7.6875 -3.375 7.6875 -6 7 C-7.3921875 6.7215625 -7.3921875 6.7215625 -8.8125 6.4375 C-9.534375 6.293125 -10.25625 6.14875 -11 6 C-10.35854916 9.09702007 -10.35854916 9.09702007 -8.109375 9.95703125 C-7.33078125 10.23933594 -6.5521875 10.52164062 -5.75 10.8125 C-0.97220256 12.83182428 1.32402622 14.51126978 4 19 C4.73370623 22.08641711 4.52058012 23.72034526 4 27 C1.46546343 30.21954645 -0.11297305 31.70432435 -4 33 C-9.42534395 33.52831065 -13.58931921 33.52854463 -18 30 C-19.36984198 28.70420353 -20.7151049 27.38007251 -22 26 C-21.505 24.515 -21.505 24.515 -21 23 C-14.375 21.75 -14.375 21.75 -11 24 C-8.66800612 24.07905064 -6.33167378 24.08798769 -4 24 C-4 22.68 -4 21.36 -4 20 C-4.825 19.938125 -5.65 19.87625 -6.5 19.8125 C-11.43080511 18.66784881 -16.37139958 16.46076928 -19.24609375 12.1171875 C-20.12324637 9.65388843 -20.11469366 8.02585435 -19.8125 5.4375 C-19.73644531 4.67308594 -19.66039062 3.90867187 -19.58203125 3.12109375 C-18.89385301 0.61316901 -17.99965856 -0.37621711 -16 -2 C-10.34590953 -4.22124983 -4.81058137 -3.60793603 0 0 Z " fill="#0DBA9F" transform="translate(168,346)"/>
<path d="M0 0 C2.97 0 5.94 0 9 0 C11.70071112 6.27980887 13.70024676 12.28460827 15 19 C15.66 19 16.32 19 17 19 C17.18175781 18.21496094 17.36351562 17.42992187 17.55078125 16.62109375 C18.94218388 10.80574429 20.42275046 5.39995141 23 0 C25.64 0 28.28 0 31 0 C30.48095458 7.62524914 28.00590279 14.34151137 25.4375 21.5 C25.01275391 22.70398438 24.58800781 23.90796875 24.15039062 25.1484375 C23.10741555 28.10158041 22.05712481 31.051899 21 34 C17.7 34 14.4 34 11 34 C9.59222077 29.80142704 8.18643431 25.60219371 6.7824707 21.40234375 C6.30482484 19.97442721 5.82664002 18.54669083 5.34790039 17.11914062 C4.65889135 15.06427668 3.97183888 13.00876736 3.28515625 10.953125 C2.87144775 9.71723633 2.45773926 8.48134766 2.03149414 7.20800781 C1.26737796 4.83156128 0.60543478 2.42173913 0 0 Z " fill="#0DB89D" transform="translate(362,344)"/>
<path d="M0 0 C1.65 0 3.3 0 5 0 C5.00410889 1.13953125 5.00821777 2.2790625 5.01245117 3.453125 C5.03434213 7.71024851 5.08873386 11.96646079 5.15258789 16.22314453 C5.17568143 18.05996927 5.1901432 19.89692479 5.19555664 21.73388672 C5.20490996 24.38591198 5.24603634 27.03590464 5.29296875 29.6875 C5.2890361 30.49928711 5.28510345 31.31107422 5.28105164 32.14746094 C5.43000277 38.06365804 6.98393995 42.54807708 11 47 C13.75701249 48.73320568 15.89366051 49.25747457 19.12597656 49.31884766 C19.92650452 49.33871735 20.72703247 49.35858704 21.55181885 49.37905884 C22.40612488 49.39061005 23.26043091 49.40216125 24.140625 49.4140625 C25.02280701 49.43342865 25.90498901 49.4527948 26.81390381 49.4727478 C29.62583816 49.53242848 32.4378137 49.57888283 35.25 49.625 C37.15887181 49.66319038 39.06772659 49.70224273 40.9765625 49.7421875 C45.65090296 49.83812058 50.32532409 49.92219416 55 50 C55.495 51.98 55.495 51.98 56 54 C50.28915661 54.049623 44.57844015 54.08582503 38.86743164 54.10986328 C36.92665418 54.1198898 34.9858917 54.13351443 33.04516602 54.15087891 C30.24752084 54.17527489 27.45007629 54.18651681 24.65234375 54.1953125 C23.7916478 54.20563507 22.93095184 54.21595764 22.04417419 54.22659302 C15.72116635 54.2277574 10.36819845 53.88379422 5.25 49.8125 C0.27642194 43.59552743 -0.43519677 38.27146484 -0.29296875 30.56640625 C-0.28872391 29.68846909 -0.28447906 28.81053192 -0.28010559 27.9059906 C-0.2634229 25.1245042 -0.22579085 22.34376436 -0.1875 19.5625 C-0.17243968 17.66732823 -0.15875364 15.77214502 -0.14648438 13.87695312 C-0.1135536 9.25101803 -0.06184428 4.62563523 0 0 Z " fill="#0E173F" transform="translate(303,148)"/>
<path d="M0 0 C1.98 0 3.96 0 6 0 C6.00364563 0.64844376 6.00729126 1.29688751 6.01104736 1.96498108 C6.05294338 8.73018901 6.12233936 15.49472301 6.20751953 22.25952148 C6.23569908 24.78223929 6.25692854 27.30504489 6.27099609 29.82788086 C6.29246633 33.45992891 6.3391411 37.09092466 6.390625 40.72265625 C6.39185364 41.84583755 6.39308228 42.96901886 6.39434814 44.12623596 C6.53502866 51.69277144 7.49206646 56.49206646 13 62 C13.125 64.625 13.125 64.625 13 67 C9.59357814 66.70802098 8.06799804 66.05504603 5.375 63.875 C-0.48733743 56.77848627 -0.41321533 50.39632644 -0.29296875 41.50390625 C-0.28872391 40.31522446 -0.28447906 39.12654266 -0.28010559 37.90184021 C-0.26337251 34.12182543 -0.2257289 30.34235245 -0.1875 26.5625 C-0.17244628 23.99284627 -0.15875908 21.42318414 -0.14648438 18.85351562 C-0.11348648 12.56882695 -0.06334004 6.28445219 0 0 Z " fill="#0E294A" transform="translate(390,134)"/>
<path d="M0 0 C2.50851708 2.99092422 2.69462931 6.10788769 2.625 9.9375 C1.82941623 12.68588031 1.26977519 13.55427136 -1.17578125 15.0078125 C-4.88736008 16.57682806 -8.43599851 16.74550031 -12.375 15.9375 C-15.07641541 13.36472342 -16.28157384 11.6481652 -16.48828125 7.86328125 C-16.23811162 4.85568636 -15.75969244 2.47956662 -14 0 C-9.43389964 -2.98552716 -4.79015957 -2.14296612 0 0 Z " fill="#0E1A41" transform="translate(208.375,354.0625)"/>
<path d="M0 0 C9.19869174 -0.49059689 9.19869174 -0.49059689 13.0625 1.875 C15.63374869 4.69507921 15.96775118 5.55657874 16.25 9.4375 C16 13 16 13 14.625 14.9375 C13 16 13 16 11 16 C11 16.66 11 17.32 11 18 C7.37 18 3.74 18 0 18 C0 12.06 0 6.12 0 0 Z " fill="#0E1C42" transform="translate(326,352)"/>
<path d="M0 0 C2.475 0.495 2.475 0.495 5 1 C5.33 3.31 5.66 5.62 6 8 C6.66 8 7.32 8 8 8 C8.33 5.69 8.66 3.38 9 1 C10.65 0.67 12.3 0.34 14 0 C14.99 1.98 15.98 3.96 17 6 C17.66 4.02 18.32 2.04 19 0 C20.65 0 22.3 0 24 0 C23.54705135 1.75140143 23.08741252 3.50107344 22.625 5.25 C22.24214844 6.71179688 22.24214844 6.71179688 21.8515625 8.203125 C21.10401491 10.65837303 20.22876183 12.75617405 19 15 C17.35 15 15.7 15 14 15 C13.67 12.69 13.34 10.38 13 8 C12.34 8 11.68 8 11 8 C10.34 10.31 9.68 12.62 9 15 C7.35 14.67 5.7 14.34 4 14 C3.32968281 12.0429132 2.66385317 10.08428887 2 8.125 C1.62875 7.03445313 1.2575 5.94390625 0.875 4.8203125 C0 2 0 2 0 0 Z " fill="#D54E81" transform="translate(4,401)"/>
<path d="M0 0 C9.03954802 -0.60263653 9.03954802 -0.60263653 13.1875 2 C15.02669879 5.0441911 15.29558085 5.82009512 15.0625 9.1875 C14 13 14 13 12.26171875 14.23046875 C9.62495444 15.12760617 7.52901652 15.19813201 4.75 15.125 C3.1825 15.08375 1.615 15.0425 0 15 C0 10.05 0 5.1 0 0 Z " fill="#C04B74" transform="translate(422,401)"/>
<path d="M0 0 C2.475 0.495 2.475 0.495 5 1 C6.14453125 2.84765625 6.14453125 2.84765625 6.8125 5.0625 C7.04582031 5.79597656 7.27914062 6.52945312 7.51953125 7.28515625 C7.67808594 7.85105469 7.83664062 8.41695313 8 9 C10.61047801 7.694761 10.68066423 6.64173426 11.625 3.9375 C11.88539063 3.20402344 12.14578125 2.47054688 12.4140625 1.71484375 C12.60742188 1.14894531 12.80078125 0.58304687 13 0 C14.65 0 16.3 0 18 0 C18 4.95 18 9.9 18 15 C16.68 15 15.36 15 14 15 C13.67 13.68 13.34 12.36 13 11 C12.34 12.32 11.68 13.64 11 15 C9.35 15 7.7 15 6 15 C5.67 14.01 5.34 13.02 5 12 C4.67 12.99 4.34 13.98 4 15 C2.68 15 1.36 15 0 15 C0 10.05 0 5.1 0 0 Z " fill="#D7537C" transform="translate(667,401)"/>
<path d="M0 0 C1.60875 -0.04125 3.2175 -0.0825 4.875 -0.125 C5.77992188 -0.14820313 6.68484375 -0.17140625 7.6171875 -0.1953125 C10 0 10 0 12 2 C12.484375 4.53125 12.484375 4.53125 12.75 7.5 C12.89695312 8.96953125 12.89695312 8.96953125 13.046875 10.46875 C13 13 13 13 11 15 C7.31975395 15.27629475 3.69505443 15.0859315 0 15 C0 10.05 0 5.1 0 0 Z " fill="#B64B6D" transform="translate(262,401)"/>
<path d="M0 0 C15.84 0.33 31.68 0.66 48 1 C48 4.63 48 8.26 48 12 C41.75611512 12.04969116 35.51234712 12.08585699 29.26831055 12.10986328 C27.14719638 12.11987844 25.02609587 12.13349446 22.9050293 12.15087891 C19.84420384 12.17532525 16.78356203 12.18652825 13.72265625 12.1953125 C12.3158535 12.21079636 12.3158535 12.21079636 10.88063049 12.22659302 C2.54619703 12.22799153 -4.65701543 11.14219642 -12 7 C-8.78158126 5.39079063 -6.28446801 6.9250832 -3 8 C-2.67 8.33 -2.34 8.66 -2 9 C-0.49683231 9.1224331 1.01188167 9.17776285 2.51977539 9.20532227 C3.96115623 9.2352401 3.96115623 9.2352401 5.43165588 9.26576233 C6.476436 9.28247482 7.52121613 9.29918732 8.59765625 9.31640625 C9.66165146 9.33718735 10.72564667 9.35796844 11.82188416 9.37937927 C15.2353544 9.44499254 18.64890429 9.50381423 22.0625 9.5625 C24.37045109 9.60567403 26.678394 9.64928794 28.98632812 9.69335938 C34.65746682 9.80068584 40.32868552 9.90242992 46 10 C46 7.36 46 4.72 46 2 C44.78417236 2.00523682 43.56834473 2.01047363 42.31567383 2.01586914 C37.79631285 2.03399624 33.27695508 2.04546021 28.75756836 2.05493164 C26.80313577 2.05995422 24.84870694 2.06677349 22.89428711 2.07543945 C20.08185907 2.08759589 17.26948081 2.09324913 14.45703125 2.09765625 C13.15050346 2.10539818 13.15050346 2.10539818 11.81758118 2.11329651 C7.74374461 2.11367154 3.97410561 2.02821533 0 1 C0 0.67 0 0.34 0 0 Z " fill="#0D8C84" transform="translate(312,218)"/>
<path d="M0 0 C8.17817372 -0.36080178 8.17817372 -0.36080178 11.5625 1.125 C13.6294018 3.82095887 13.33873735 5.68037396 13 9 C12.7018576 10.34164079 12.37756808 11.67851173 12 13 C12 13.66 12 14.32 12 15 C9.07120629 14.37240135 6.63904371 13.41377341 4 12 C4 12.99 4 13.98 4 15 C2.68 15 1.36 15 0 15 C0 10.05 0 5.1 0 0 Z " fill="#CC4B7D" transform="translate(549,401)"/>
<path d="M0 0 C1.65 0 3.3 0 5 0 C7.1875 2.4375 7.1875 2.4375 9 5 C9.66 5.33 10.32 5.66 11 6 C11 4.02 11 2.04 11 0 C12.32 0 13.64 0 15 0 C15 4.95 15 9.9 15 15 C8.87232474 13.77446495 8.51818479 12.72441958 5 8 C4.67 10.31 4.34 12.62 4 15 C2.68 15 1.36 15 0 15 C0 10.05 0 5.1 0 0 Z " fill="#D7527E" transform="translate(397,401)"/>
<path d="M0 0 C8.625 -0.25 8.625 -0.25 12 2 C12.29296875 5.0390625 12.29296875 5.0390625 12.1875 8.625 C12.16042969 9.81351562 12.13335937 11.00203125 12.10546875 12.2265625 C12.07066406 13.14179688 12.03585938 14.05703125 12 15 C10.35 14.67 8.7 14.34 7 14 C7 13.34 7 12.68 7 12 C6.01 12 5.02 12 4 12 C4 12.99 4 13.98 4 15 C2.68 15 1.36 15 0 15 C0 10.05 0 5.1 0 0 Z " fill="#D34D80" transform="translate(82,401)"/>
<path d="M0 0 C1.65 0 3.3 0 5 0 C5 1.98 5 3.96 5 6 C6.65 6 8.3 6 10 6 C10 4.02 10 2.04 10 0 C11.32 0 12.64 0 14 0 C14 4.95 14 9.9 14 15 C12.68 15 11.36 15 10 15 C10 13.35 10 11.7 10 10 C8.35 10 6.7 10 5 10 C5 11.65 5 13.3 5 15 C3.35 15 1.7 15 0 15 C0 10.05 0 5.1 0 0 Z " fill="#B94773" transform="translate(571,401)"/>
<path d="M0 0 C8.40451128 -0.48721805 8.40451128 -0.48721805 11.0625 1.6875 C12.16100281 4.39714026 12.36257873 6.09937014 12 9 C11 11.3125 11 11.3125 10 13 C10.66 13 11.32 13 12 13 C12 13.66 12 14.32 12 15 C8.65626525 14.44271087 5.96687001 13.64826111 3 12 C3 12.99 3 13.98 3 15 C2.01 15 1.02 15 0 15 C0 10.05 0 5.1 0 0 Z " fill="#D54F80" transform="translate(205,401)"/>
<path d="M0 0 C4 2 4 2 5 4 C4.01 4 3.02 4 2 4 C2.00444122 4.8224118 2.00888245 5.64482361 2.01345825 6.49215698 C2.05348672 14.23221916 2.08395975 21.97223135 2.10362434 29.71236992 C2.11407386 33.69191773 2.12825422 37.67138021 2.15087891 41.65087891 C2.17256585 45.48933886 2.18455982 49.32771659 2.18975449 53.16623306 C2.19345773 54.63270487 2.200689 56.09917205 2.21146011 57.56560898 C2.22592019 59.61529106 2.22798029 61.66463082 2.22705078 63.71435547 C2.231492 64.88239716 2.23593323 66.05043884 2.24050903 67.25387573 C2 70 2 70 0 72 C0 48.24 0 24.48 0 0 Z " fill="#0E3C55" transform="translate(286,214)"/>
<path d="M0 0 C1.65 0 3.3 0 5 0 C5.83739781 2.1234016 6.66980283 4.2487728 7.5 6.375 C7.9640625 7.55835938 8.428125 8.74171875 8.90625 9.9609375 C10 13 10 13 10 15 C8.68 15 7.36 15 6 15 C6 14.34 6 13.68 6 13 C0.44946714 13.74359673 0.44946714 13.74359673 -5 15 C-4.5188509 9.22621075 -2.81532819 5.04140164 0 0 Z " fill="#C74A7A" transform="translate(311,401)"/>
<path d="M0 0 C1.32 0 2.64 0 4 0 C4 1.98 4 3.96 4 6 C5.98 6 7.96 6 10 6 C10 4.02 10 2.04 10 0 C11.32 0 12.64 0 14 0 C14 4.95 14 9.9 14 15 C12.68 15 11.36 15 10 15 C10 13.02 10 11.04 10 9 C8.02 9 6.04 9 4 9 C4 10.98 4 12.96 4 15 C2.68 15 1.36 15 0 15 C0 10.05 0 5.1 0 0 Z " fill="#D8537E" transform="translate(37,401)"/>
<path d="M0 0 C1.32 0 2.64 0 4 0 C4 1.98 4 3.96 4 6 C5.98 6 7.96 6 10 6 C10 4.02 10 2.04 10 0 C10.99 0 11.98 0 13 0 C13 4.95 13 9.9 13 15 C11.68 15 10.36 15 9 15 C9 13.35 9 11.7 9 10 C7.35 10 5.7 10 4 10 C4 11.65 4 13.3 4 15 C2.68 15 1.36 15 0 15 C0 10.05 0 5.1 0 0 Z " fill="#D1517A" transform="translate(643,401)"/>
<path d="M0 0 C3.96 0 7.92 0 12 0 C12 0.99 12 1.98 12 3 C9.36 3 6.72 3 4 3 C4 3.99 4 4.98 4 6 C6.31 6 8.62 6 11 6 C11 6.99 11 7.98 11 9 C8.69 9 6.38 9 4 9 C4 9.99 4 10.98 4 12 C6.64 12 9.28 12 12 12 C12 12.99 12 13.98 12 15 C8.04 15 4.08 15 0 15 C0 10.05 0 5.1 0 0 Z " fill="#D1507C" transform="translate(183,401)"/>
<path d="M0 0 C0.99 0.66 1.98 1.32 3 2 C3 2.66 3 3.32 3 4 C1.02 4.33 -0.96 4.66 -3 5 C-1.02 5.99 0.96 6.98 3 8 C3.125 10.375 3.125 10.375 3 13 C1 15 1 15 -2.5 15.25 C-6 15 -6 15 -8 13 C-8 12.01 -8 11.02 -8 10 C-6.02 10 -4.04 10 -2 10 C-4.31 9.01 -6.62 8.02 -9 7 C-9.1875 4.625 -9.1875 4.625 -9 2 C-5.53001271 -0.31332486 -4.07490752 -0.33957563 0 0 Z " fill="#CB4D7B" transform="translate(524,401)"/>
<path d="M0 0 C1.670625 0.061875 1.670625 0.061875 3.375 0.125 C4.035 1.445 4.695 2.765 5.375 4.125 C3.395 4.455 1.415 4.785 -0.625 5.125 C1.685 5.785 3.995 6.445 6.375 7.125 C6.5625 10 6.5625 10 6.375 13.125 C2.90501271 15.43832486 1.44990752 15.46457563 -2.625 15.125 C-3.615 14.465 -4.605 13.805 -5.625 13.125 C-5.625 12.135 -5.625 11.145 -5.625 10.125 C-2.95833333 10.79166667 -0.29166667 11.45833333 2.375 12.125 C1.069761 9.51452199 0.01673426 9.44433577 -2.6875 8.5 C-3.42097656 8.23960937 -4.15445312 7.97921875 -4.91015625 7.7109375 C-5.47605469 7.51757812 -6.04195313 7.32421875 -6.625 7.125 C-5.84042384 2.15601765 -5.49387562 0.18944399 0 0 Z " fill="#CF4D7E" transform="translate(451.625,400.875)"/>
<path d="M0 0 C3.96 0 7.92 0 12 0 C12 0.99 12 1.98 12 3 C9.36 3 6.72 3 4 3 C4 3.99 4 4.98 4 6 C5.98 6 7.96 6 10 6 C10 6.99 10 7.98 10 9 C8.02 9 6.04 9 4 9 C4 9.99 4 10.98 4 12 C6.64 12 9.28 12 12 12 C12 12.99 12 13.98 12 15 C8.04 15 4.08 15 0 15 C0 10.05 0 5.1 0 0 Z " fill="#D2527A" transform="translate(284,401)"/>
<path d="M0 0 C1.65 0 3.3 0 5 0 C6.76462683 3.08809695 7 4.23312136 7 8 C9.72426311 5.64722731 10.8141763 3.37503669 12 0 C13.65 0 15.3 0 17 0 C15.40109514 5.19644079 13.25861997 10.06612142 11 15 C9.35 15 7.7 15 6 15 C5.18618205 13.06305322 4.37399084 11.12542289 3.5625 9.1875 C3.11003906 8.10855469 2.65757812 7.02960938 2.19140625 5.91796875 C1.39624987 3.9704874 0.66520352 1.99561057 0 0 Z " fill="#C2477B" transform="translate(158,401)"/>
<path d="M0 0 C3.96 0 7.92 0 12 0 C12 0.99 12 1.98 12 3 C9.36 3 6.72 3 4 3 C4 3.99 4 4.98 4 6 C5.98 6 7.96 6 10 6 C10 6.99 10 7.98 10 9 C8.02 9 6.04 9 4 9 C4 9.99 4 10.98 4 12 C6.64 12 9.28 12 12 12 C12 12.99 12 13.98 12 15 C8.04 15 4.08 15 0 15 C0 10.05 0 5.1 0 0 Z " fill="#D3517C" transform="translate(104,401)"/>
<path d="M0 0 C3.63 0 7.26 0 11 0 C11 0.99 11 1.98 11 3 C8.69 3 6.38 3 4 3 C4 3.99 4 4.98 4 6 C5.98 6 7.96 6 10 6 C10 6.99 10 7.98 10 9 C8.02 9 6.04 9 4 9 C4 9.99 4 10.98 4 12 C6.31 12 8.62 12 11 12 C11 12.99 11 13.98 11 15 C7.37 15 3.74 15 0 15 C0 10.05 0 5.1 0 0 Z " fill="#DD5480" transform="translate(61,401)"/>
<path d="M0 0 C3.63 0 7.26 0 11 0 C11 0.99 11 1.98 11 3 C8.36 3 5.72 3 3 3 C3 3.99 3 4.98 3 6 C5.31 6 7.62 6 10 6 C10 6.99 10 7.98 10 9 C7.69 9 5.38 9 3 9 C3 9.99 3 10.98 3 12 C5.64 12 8.28 12 11 12 C11 12.99 11 13.98 11 15 C7.37 15 3.74 15 0 15 C0 10.05 0 5.1 0 0 Z " fill="#DE5580" transform="translate(138,401)"/>
<path d="M0 0 C2.375 -0.1875 2.375 -0.1875 5 0 C5.66 0.99 6.32 1.98 7 3 C7.99 3.33 8.98 3.66 10 4 C10.66 2.68 11.32 1.36 12 0 C13.32 0 14.64 0 16 0 C14.92334707 2.23612531 13.80426294 4.29752033 12.4375 6.375 C10.8441333 9.28462614 10.38083701 11.72480174 10 15 C8.68 15 7.36 15 6 15 C6 12.69 6 10.38 6 8 C5.01 7.67 4.02 7.34 3 7 C0 2.66666667 0 2.66666667 0 0 Z " fill="#DB567C" transform="translate(224,401)"/>
<path d="M0 0 C2.375 0.25 2.375 0.25 5 1 C6.3125 3.0625 6.3125 3.0625 7 5 C7.66 5 8.32 5 9 5 C9.66 3.35 10.32 1.7 11 0 C12.65 0 14.3 0 16 0 C14.375 5.75 14.375 5.75 11 8 C10.26393501 11.56769552 10.26393501 11.56769552 10 15 C8.68 15 7.36 15 6 15 C5.62875 13.1746875 5.62875 13.1746875 5.25 11.3125 C4.29278506 7.39346783 2.68421942 5.04211534 0 2 C0 1.34 0 0.68 0 0 Z " fill="#DB557E" transform="translate(595,401)"/>
<path d="M0 0 C3.96 0 7.92 0 12 0 C12 0.99 12 1.98 12 3 C9.36 3 6.72 3 4 3 C4 4.32 4 5.64 4 7 C5.98 7 7.96 7 10 7 C10 7.99 10 8.98 10 10 C8.02 10 6.04 10 4 10 C4 11.65 4 13.3 4 15 C2.68 15 1.36 15 0 15 C0 10.05 0 5.1 0 0 Z " fill="#C6477E" transform="translate(362,401)"/>
<path d="M0 0 C4.29 0 8.58 0 13 0 C13 0.99 13 1.98 13 3 C11.68 3 10.36 3 9 3 C9 6.96 9 10.92 9 15 C7.68 15 6.36 15 5 15 C5 11.04 5 7.08 5 3 C3.35 3 1.7 3 0 3 C0 2.01 0 1.02 0 0 Z " fill="#D74F80" transform="translate(620,401)"/>
<path d="M0 0 C4.29 0 8.58 0 13 0 C13 0.99 13 1.98 13 3 C11.68 3 10.36 3 9 3 C9 6.96 9 10.92 9 15 C7.68 15 6.36 15 5 15 C5 11.04 5 7.08 5 3 C3.35 3 1.7 3 0 3 C0 2.01 0 1.02 0 0 Z " fill="#D44F80" transform="translate(493,401)"/>
<path d="M0 0 C4.29 0 8.58 0 13 0 C13 0.99 13 1.98 13 3 C11.35 3 9.7 3 8 3 C8 6.96 8 10.92 8 15 C6.68 15 5.36 15 4 15 C4 11.04 4 7.08 4 3 C2.68 3 1.36 3 0 3 C0 2.01 0 1.02 0 0 Z " fill="#DB5182" transform="translate(328,401)"/>
<path d="M0 0 C1.60875 -0.061875 3.2175 -0.12375 4.875 -0.1875 C5.77992188 -0.22230469 6.68484375 -0.25710938 7.6171875 -0.29296875 C8.79667969 -0.14794922 8.79667969 -0.14794922 10 0 C12.1519437 3.22791555 12.20086443 4.28400809 12 8 C11.01 8.495 11.01 8.495 10 9 C10 7.35 10 5.7 10 4 C7.69 3.34 5.38 2.68 3 2 C3 5.3 3 8.6 3 12 C4.65 12 6.3 12 8 12 C8 12.33 8 12.66 8 13 C5.36 13 2.72 13 0 13 C0 8.71 0 4.42 0 0 Z " fill="#E85785" transform="translate(423,402)"/>
<path d="M0 0 C2.64 0 5.28 0 8 0 C8 0.66 8 1.32 8 2 C6.35 2 4.7 2 3 2 C3 2.99 3 3.98 3 5 C6.465 4.505 6.465 4.505 10 4 C9 7 9 7 8 8 C6.33382885 8.04063832 4.66611905 8.042721 3 8 C3 9.32 3 10.64 3 12 C4.32 12.33 5.64 12.66 7 13 C4.69 13 2.38 13 0 13 C0 8.71 0 4.42 0 0 Z " fill="#EA5B82" transform="translate(263,402)"/>
<path d="M0 0 C0.99 0.66 1.98 1.32 3 2 C3.30981002 5.56281526 2.9771857 8.57985006 2 12 C2 12.66 2 13.32 2 14 C0.0625 13.625 0.0625 13.625 -2 13 C-2.33 12.34 -2.66 11.68 -3 11 C-2.34 11 -1.68 11 -1 11 C-1 10.34 -1 9.68 -1 9 C-2.65 9 -4.3 9 -6 9 C-6 6.69 -6 4.38 -6 2 C-3.03 2.495 -3.03 2.495 0 3 C0 2.01 0 1.02 0 0 Z " fill="#CC4F79" transform="translate(559,402)"/>
<path d="M0 0 C0.33 0 0.66 0 1 0 C1 4.29 1 8.58 1 13 C-0.65 12.67 -2.3 12.34 -4 12 C-4 11.34 -4 10.68 -4 10 C-4.99 9.67 -5.98 9.34 -7 9 C-7 6.36 -7 3.72 -7 1 C-5.35 1 -3.7 1 -2 1 C-1.67 2.32 -1.34 3.64 -1 5 C-0.67 3.35 -0.34 1.7 0 0 Z " fill="#D45479" transform="translate(93,403)"/>
<path d="M0 0 C3.50378937 -0.10010827 6.57780506 0.27953791 10 1 C10.99 1 11.98 1 13 1 C12.01 2.32 11.02 3.64 10 5 C10.6496875 5.60134766 10.6496875 5.60134766 11.3125 6.21484375 C14.72261269 9.69600045 16.42238618 11.94615608 16.375 16.9375 C16.27987996 18.29409299 16.16528674 19.65015829 16 21 C15.67 21 15.34 21 15 21 C14.938125 19.80375 14.87625 18.6075 14.8125 17.375 C14.2176443 12.88582228 12.57621355 9.8176228 9 7 C6.08065994 5.42541457 3.10860054 4.15133353 0 3 C0 2.01 0 1.02 0 0 Z " fill="#0D5160" transform="translate(157,352)"/>
<path d="M0 0 C1 3 1 3 0 6 C3.19902639 6.08886184 5.92677456 5.91058531 9 5 C9.33 6.65 9.66 8.3 10 10 C8.68 10 7.36 10 6 10 C6 9.34 6 8.68 6 8 C0.44946714 8.74359673 0.44946714 8.74359673 -5 10 C-4.50769231 3.47692308 -4.50769231 3.47692308 -1.9375 1.0625 C-0.9784375 0.5365625 -0.9784375 0.5365625 0 0 Z " fill="#E25D7A" transform="translate(311,406)"/>
<path d="M0 0 C1.98 0 3.96 0 6 0 C4.68 0.33 3.36 0.66 2 1 C2 3.31 2 5.62 2 8 C5.465 7.505 5.465 7.505 9 7 C9 8.65 9 10.3 9 12 C9.66 12 10.32 12 11 12 C11 12.66 11 13.32 11 14 C7.65626525 13.44271087 4.96687001 12.64826111 2 11 C2 11.66 2 12.32 2 13 C1.34 13 0.68 13 0 13 C0 8.71 0 4.42 0 0 Z " fill="#EA5B82" transform="translate(206,402)"/>
<path d="M0 0 C3.3 0.99 6.6 1.98 10 3 C10 4.32 10 5.64 10 7 C4.55106131 8.19876651 1.77830905 7.91360308 -3 5 C-2.01 3.35 -1.02 1.7 0 0 Z " fill="#0E304E" transform="translate(154,363)"/>
<path d="M0 0 C6.15234375 -0.09765625 6.15234375 -0.09765625 8 0 C9 1 9 1 9.125 3.5 C9 6 9 6 8 7 C5.32941149 7.14115161 2.67567762 7.04247107 0 7 C0 4.69 0 2.38 0 0 Z " fill="#0E2143" transform="translate(450,352)"/>
<path d="M0 0 C1.32 0 2.64 0 4 0 C4 4.95 4 9.9 4 15 C2.68 15 1.36 15 0 15 C0 10.05 0 5.1 0 0 Z " fill="#CD4E7A" transform="translate(480,401)"/>
<path d="M0 0 C1.32 0 2.64 0 4 0 C4 4.95 4 9.9 4 15 C2.68 15 1.36 15 0 15 C0 10.05 0 5.1 0 0 Z " fill="#CC4E7A" transform="translate(384,401)"/>
<path d="M0 0 C1.65 0 3.3 0 5 0 C3.58192622 4.47238653 1.88695626 8.71146306 0 13 C-2.5 11.625 -2.5 11.625 -5 10 C-5 9.34 -5 8.68 -5 8 C-4.54625 7.566875 -4.0925 7.13375 -3.625 6.6875 C-1.65690769 4.64371183 -0.93273129 2.65469676 0 0 Z " fill="#C04878" transform="translate(170,401)"/>
<path d="M0 0 C3.3 0.99 6.6 1.98 10 3 C10 4.32 10 5.64 10 7 C7.375 7.75 7.375 7.75 4 8 C0.625 6.0625 0.625 6.0625 -2 4 C-1.34 2.68 -0.68 1.36 0 0 Z " fill="#0E2848" transform="translate(489,363)"/>
<path d="M0 0 C1.32 0 2.64 0 4 0 C5.85776765 3.13498292 6.20140476 5.37471432 6 9 C5.01 9 4.02 9 3 9 C2.67 10.32 2.34 11.64 2 13 C1.34 13 0.68 13 0 13 C0 8.71 0 4.42 0 0 Z " fill="#EB5886" transform="translate(668,402)"/>
<path d="M0 0 C1.60875 -0.04125 3.2175 -0.0825 4.875 -0.125 C5.77992188 -0.14820313 6.68484375 -0.17140625 7.6171875 -0.1953125 C10 0 10 0 12 2 C12.125 5.125 12.125 5.125 12 8 C11.34 7.34 10.68 6.68 10 6 C6.91652174 5.83318891 6.91652174 5.83318891 4 6 C4 5.01 4 4.02 4 3 C5.65 3 7.3 3 9 3 C9 2.34 9 1.68 9 1 C6.36 1 3.72 1 1 1 C1 5.62 1 10.24 1 15 C0.67 15 0.34 15 0 15 C0 10.05 0 5.1 0 0 Z " fill="#9E3B6D" transform="translate(262,401)"/>
<path d="M0 0 C2.64 0 5.28 0 8 0 C8 0.33 8 0.66 8 1 C6.02 1.66 4.04 2.32 2 3 C1.67 15.21 1.34 27.42 1 40 C0.67 40 0.34 40 0 40 C0 26.8 0 13.6 0 0 Z " fill="#0E1F43" transform="translate(319,145)"/>
<path d="M0 0 C4.875 0.875 4.875 0.875 6 2 C6.1875 4.4375 6.1875 4.4375 6 7 C5.34 7.66 4.68 8.32 4 9 C2.68 9 1.36 9 0 9 C0 6.03 0 3.06 0 0 Z " fill="#2C1643" transform="translate(426,404)"/>
<path d="M0 0 C0.99 0 1.98 0 3 0 C3 1.98 3 3.96 3 6 C0.22899606 7.38550197 -1.9334706 7.1877467 -5 7 C-5.99 6.34 -6.98 5.68 -8 5 C-8 4.01 -8 3.02 -8 2 C-4 3 -4 3 0 4 C0 2.68 0 1.36 0 0 Z " fill="#ED607F" transform="translate(454,409)"/>
<path d="M0 0 C0.33 0.66 0.66 1.32 1 2 C3.31 2 5.62 2 8 2 C8 2.99 8 3.98 8 5 C6.02 5 4.04 5 2 5 C2 6.65 2 8.3 2 10 C1.01 10 0.02 10 -1 10 C-1.125 3.375 -1.125 3.375 0 0 Z " fill="#E85B80" transform="translate(364,406)"/>
<path d="M0 0 C0.66 0 1.32 0 2 0 C2 4.29 2 8.58 2 13 C1.34 13 0.68 13 0 13 C0 11.35 0 9.7 0 8 C-2.31 8 -4.62 8 -7 8 C-7 7.01 -7 6.02 -7 5 C-4.69 5 -2.38 5 0 5 C0 3.35 0 1.7 0 0 Z " fill="#EA5985" transform="translate(582,402)"/>
<path d="M0 0 C0.99 0.33 1.98 0.66 3 1 C2.34 1 1.68 1 1 1 C0.7834375 2.423125 0.7834375 2.423125 0.5625 3.875 C0 7 0 7 -1 9 C-2.65 8.67 -4.3 8.34 -6 8 C-6 6.68 -6 5.36 -6 4 C-3.1875 1.6875 -3.1875 1.6875 0 0 Z " fill="#ED5F80" transform="translate(14,407)"/>
<path d="M0 0 C3.62528568 -0.20140476 5.86501708 0.14223235 9 2 C8.67 2.99 8.34 3.98 8 5 C9.32 5.66 10.64 6.32 12 7 C11.01 7.495 11.01 7.495 10 8 C7.6171875 7.00390625 7.6171875 7.00390625 4.875 5.5625 C3.96492188 5.08941406 3.05484375 4.61632812 2.1171875 4.12890625 C1.41851562 3.75636719 0.71984375 3.38382812 0 3 C0 2.01 0 1.02 0 0 Z " fill="#0D2F4B" transform="translate(492,352)"/>
<path d="M0 0 C0.33 0 0.66 0 1 0 C1 4.95 1 9.9 1 15 C1.99 15 2.98 15 4 15 C4 14.01 4 13.02 4 12 C4.8353125 12.2165625 4.8353125 12.2165625 5.6875 12.4375 C8.04945411 13.04352665 8.04945411 13.04352665 10.6875 13.4375 C11.450625 13.623125 12.21375 13.80875 13 14 C13.33 14.66 13.66 15.32 14 16 C9.33333333 16 4.66666667 16 0 16 C0 10.72 0 5.44 0 0 Z " fill="#52244E" transform="translate(204,401)"/>
<path d="M0 0 C2.64 0 5.28 0 8 0 C7.67 2.64 7.34 5.28 7 8 C5.02 8 3.04 8 1 8 C0.67 9.32 0.34 10.64 0 12 C0 10.35 0 8.7 0 7 C1.98 7 3.96 7 6 7 C6 6.01 6 5.02 6 4 C4.02 4 2.04 4 0 4 C0 2.68 0 1.36 0 0 Z " fill="#48204D" transform="translate(366,404)"/>
<path d="M0 0 C-1.44077046 3.36179774 -3.24750021 5.59156268 -6 8 C-6.66 8 -7.32 8 -8 8 C-8.33 11.96 -8.66 15.92 -9 20 C-9.33 20 -9.66 20 -10 20 C-10.43741489 8.84592018 -10.43741489 8.84592018 -6.6015625 4.3671875 C-2.4375 0 -2.4375 0 0 0 Z " fill="#0D9689" transform="translate(252,267)"/>
<path d="M0 0 C0.66 0 1.32 0 2 0 C2 0.66 2 1.32 2 2 C3.32 1.34 4.64 0.68 6 0 C6.04254356 1.99954746 6.04080783 4.00041636 6 6 C5 7 5 7 2.4375 7.0625 C1.2309375 7.0315625 1.2309375 7.0315625 0 7 C0 4.69 0 2.38 0 0 Z " fill="#E85E7D" transform="translate(18,409)"/>
<path d="M0 0 C2.375 -0.1875 2.375 -0.1875 5 0 C5.66 0.99 6.32 1.98 7 3 C7.99 3.66 8.98 4.32 10 5 C8.68 5 7.36 5 6 5 C5.01 6.485 5.01 6.485 4 8 C0 2.25 0 2.25 0 0 Z " fill="#A53C71" transform="translate(224,401)"/>
<path d="M0 0 C0.33 0.99 0.66 1.98 1 3 C2.98 3 4.96 3 7 3 C7 3.99 7 4.98 7 6 C5.02 6 3.04 6 1 6 C0.67 6.99 0.34 7.98 0 9 C-0.87890625 2.84765625 -0.87890625 2.84765625 -1 1 C-0.67 0.67 -0.34 0.34 0 0 Z " fill="#E05581" transform="translate(107,404)"/>
<path d="M0 0 C0.433125 0.495 0.86625 0.99 1.3125 1.5 C2.99740483 3.33218192 2.99740483 3.33218192 6 3 C6 4.65 6 6.3 6 8 C4.35 8 2.7 8 1 8 C0.67 5.36 0.34 2.72 0 0 Z " fill="#EA5F7D" transform="translate(163,408)"/>
<path d="M0 0 C2.475 0.495 2.475 0.495 5 1 C4.67 2.65 4.34 4.3 4 6 C2.68 6 1.36 6 0 6 C0 4.02 0 2.04 0 0 Z " fill="#502250" transform="translate(208,404)"/>
<path d="M0 0 C2.64 0 5.28 0 8 0 C8 1.98 8 3.96 8 6 C7.34 6 6.68 6 6 6 C6 5.01 6 4.02 6 3 C4.02 3 2.04 3 0 3 C0 2.01 0 1.02 0 0 Z " fill="#3D1B4A" transform="translate(288,404)"/>
<path d="M0 0 C2.64 0 5.28 0 8 0 C8 1.98 8 3.96 8 6 C7.34 6 6.68 6 6 6 C6 5.01 6 4.02 6 3 C4.02 3 2.04 3 0 3 C0 2.01 0 1.02 0 0 Z " fill="#3C1A49" transform="translate(108,404)"/>
<path d="M0 0 C0.33 0 0.66 0 1 0 C1.103125 1.11375 1.20625 2.2275 1.3125 3.375 C1.539375 4.57125 1.76625 5.7675 2 7 C2.99 7.66 3.98 8.32 5 9 C4.01 9.33 3.02 9.66 2 10 C1.67 10.66 1.34 11.32 1 12 C0.34 12 -0.32 12 -1 12 C-1.02698189 10.37509046 -1.04638757 8.75005367 -1.0625 7.125 C-1.07410156 6.22007812 -1.08570312 5.31515625 -1.09765625 4.3828125 C-1 2 -1 2 0 0 Z " fill="#F65F86" transform="translate(84,403)"/>
<path d="M0 0 C0.598125 0.226875 1.19625 0.45375 1.8125 0.6875 C0.3584375 2.0178125 0.3584375 2.0178125 -1.125 3.375 C-3.78872242 6.01365209 -4.9606363 7.83081715 -5.1875 11.6875 C-5.5175 11.6875 -5.8475 11.6875 -6.1875 11.6875 C-6.10003716 10.24888706 -5.99184652 8.81152492 -5.875 7.375 C-5.81699219 6.57449219 -5.75898438 5.77398437 -5.69921875 4.94921875 C-4.92189397 1.51356192 -3.7285935 -0.53265621 0 0 Z " fill="#0D9589" transform="translate(154.1875,344.3125)"/>
<path d="M0 0 C2.64 0 5.28 0 8 0 C8 1.98 8 3.96 8 6 C7.67 5.01 7.34 4.02 7 3 C4.69 3 2.38 3 0 3 C0 2.01 0 1.02 0 0 Z " fill="#3E1B4A" transform="translate(141,404)"/>
<path d="M0 0 C1.32 0 2.64 0 4 0 C2.70700306 2.88437779 1.34058637 4.87219421 -1 7 C-1.66 6.34 -2.32 5.68 -3 5 C-1.75 2.5 -1.75 2.5 0 0 Z " fill="#CE4A81" transform="translate(236,401)"/>
<path d="M0 0 C1.65 0 3.3 0 5 0 C4.39816251 2.02045442 3.72693904 4.02111039 3 6 C2.01 6.495 2.01 6.495 1 7 C1 6.01 1 5.02 1 4 C0.01 4.33 -0.98 4.66 -2 5 C-1.34 3.35 -0.68 1.7 0 0 Z " fill="#B14077" transform="translate(606,401)"/>
<path d="M0 0 C2.25 -0.25 2.25 -0.25 5 0 C7.3125 2 7.3125 2 9 4 C6.36 4 3.72 4 1 4 C0.67 2.68 0.34 1.36 0 0 Z " fill="#0E2043" transform="translate(157,352)"/>
<path d="M0 0 C0.99 1.485 0.99 1.485 2 3 C5.08365871 3.2502157 5.08365871 3.2502157 8 3 C7.67 4.32 7.34 5.64 7 7 C4.03 6.505 4.03 6.505 1 6 C0.67 6.66 0.34 7.32 0 8 C0 5.36 0 2.72 0 0 Z " fill="#F76283" transform="translate(551,407)"/>
<path d="M0 0 C1.32 0 2.64 0 4 0 C4 1.98 4 3.96 4 6 C2.68 6 1.36 6 0 6 C0 4.02 0 2.04 0 0 Z " fill="#481F4D" transform="translate(553,404)"/>
<path d="M0 0 C2.97 0 5.94 0 9 0 C9 0.66 9 1.32 9 2 C6.69 2 4.38 2 2 2 C2 2.99 2 3.98 2 5 C1.34 5 0.68 5 0 5 C0 3.35 0 1.7 0 0 Z " fill="#EE538E" transform="translate(286,402)"/>
<path d="M0 0 C0.99 0 1.98 0 3 0 C3.042721 1.66611905 3.04063832 3.33382885 3 5 C2 6 2 6 -1.5625 6.0625 C-2.696875 6.041875 -3.83125 6.02125 -5 6 C-4.360625 5.7525 -3.72125 5.505 -3.0625 5.25 C-0.81258459 4.18437567 -0.81258459 4.18437567 -0.25 1.875 C-0.1675 1.25625 -0.085 0.6375 0 0 Z " fill="#EF607F" transform="translate(524,409)"/>
<path d="M0 0 C1 3 1 3 0 6 C1.32 6.33 2.64 6.66 4 7 C1.69 7 -0.62 7 -3 7 C-3.1875 4.625 -3.1875 4.625 -3 2 C-2.01 1.34 -1.02 0.68 0 0 Z " fill="#F45F85" transform="translate(311,406)"/>
<path d="M0 0 C0.99 0 1.98 0 3 0 C2.625 2.9375 2.625 2.9375 2 6 C1.01 6.495 1.01 6.495 0 7 C0 4.69 0 2.38 0 0 Z M-6 7 C-4.02 7 -2.04 7 0 7 C0 7.33 0 7.66 0 8 C-1.98 8 -3.96 8 -6 8 C-6 7.67 -6 7.34 -6 7 Z " fill="#E95489" transform="translate(653,401)"/>
<path d="M0 0 C2.31 0 4.62 0 7 0 C7.66 1.32 8.32 2.64 9 4 C6.69 4 4.38 4 2 4 C2.99 3.67 3.98 3.34 5 3 C5 2.34 5 1.68 5 1 C3.02 1.33 1.04 1.66 -1 2 C-0.67 1.34 -0.34 0.68 0 0 Z " fill="#BE437C" transform="translate(448,401)"/>
<path d="M0 0 C2.64 0 5.28 0 8 0 C8 0.66 8 1.32 8 2 C6.02 2 4.04 2 2 2 C1.67 3.32 1.34 4.64 1 6 C0 5 0 5 -0.0625 2.4375 C-0.041875 1.633125 -0.02125 0.82875 0 0 Z " fill="#F0548F" transform="translate(263,402)"/>
<path d="M0 0 C1.32 0.33 2.64 0.66 4 1 C3.67 2.65 3.34 4.3 3 6 C2.01 6 1.02 6 0 6 C0 4.02 0 2.04 0 0 Z " fill="#391A47" transform="translate(86,404)"/>
<path d="M0 0 C2.64 0 5.28 0 8 0 C7.67 0.99 7.34 1.98 7 3 C4.69 3 2.38 3 0 3 C0 2.01 0 1.02 0 0 Z " fill="#411C4B" transform="translate(187,404)"/>
<path d="M0 0 C1.9375 0.375 1.9375 0.375 4 1 C4.33 1.66 4.66 2.32 5 3 C7.01669827 4.13350534 7.01669827 4.13350534 9 5 C3.375 5.25 3.375 5.25 0 3 C0 2.01 0 1.02 0 0 Z " fill="#D15674" transform="translate(446,411)"/>
<path d="M0 0 C2.375 0.25 2.375 0.25 5 1 C6.3125 3.0625 6.3125 3.0625 7 5 C6.34 4.67 5.68 4.34 5 4 C4.34 4.66 3.68 5.32 3 6 C0 2.25 0 2.25 0 0 Z " fill="#BD437B" transform="translate(595,401)"/>
<path d="M0 0 C0.66 0.33 1.32 0.66 2 1 C-2.625 6.875 -2.625 6.875 -6 8 C-4.55746343 4.63408134 -2.66735273 2.48952921 0 0 Z " fill="#0D9086" transform="translate(191,346)"/>
<path d="M0 0 C9.59453303 1.74259681 9.59453303 1.74259681 13 5 C8.02693484 4.50269348 4.36200187 3.44697666 0 1 C0 0.67 0 0.34 0 0 Z " fill="#0D7073" transform="translate(300,224)"/>
<path d="M0 0 C-1.49097658 3.7952131 -3.75700849 5.61042731 -7 8 C-4.18918919 0 -4.18918919 0 0 0 Z " fill="#0D9A8C" transform="translate(339,281)"/>
<path d="M0 0 C1.32 1.32 2.64 2.64 4 4 C3.34 4 2.68 4 2 4 C2 5.32 2 6.64 2 8 C1.34 8 0.68 8 0 8 C0 5.36 0 2.72 0 0 Z " fill="#4C224C" transform="translate(401,408)"/>
<path d="M0 0 C-0.33 2.31 -0.66 4.62 -1 7 C-2.32 6.01 -3.64 5.02 -5 4 C-4.67 3.01 -4.34 2.02 -4 1 C-2 0 -2 0 0 0 Z " fill="#0D8680" transform="translate(151,368)"/>
<path d="M0 0 C0.33 1.32 0.66 2.64 1 4 C1.66 4 2.32 4 3 4 C2.67 4.99 2.34 5.98 2 7 C1.01 7 0.02 7 -1 7 C-0.67 4.69 -0.34 2.38 0 0 Z " fill="#C95372" transform="translate(307,409)"/>
<path d="M0 0 C0.66 0 1.32 0 2 0 C2.33 1.65 2.66 3.3 3 5 C1.35 5.66 -0.3 6.32 -2 7 C-1.34 4.69 -0.68 2.38 0 0 Z " fill="#4F244D" transform="translate(15,409)"/>
<path d="M0 0 C0.99 0 1.98 0 3 0 C3.33 2.31 3.66 4.62 4 7 C3.01 7.495 3.01 7.495 2 8 C1.34 5.36 0.68 2.72 0 0 Z " fill="#F3598B" transform="translate(431,403)"/>
</svg>
